<?xml version="1.0" encoding="UTF-8"?>
<!DOCTYPE svg PUBLIC "-//W3C//DTD SVG 1.1//EN" "http://www.w3.org/Graphics/SVG/1.1/DTD/svg11.dtd">
<!-- Creator: CorelDRAW X7 -->
<svg xmlns="http://www.w3.org/2000/svg" xml:space="preserve" width="686px" height="542px" version="1.1" style="shape-rendering:geometricPrecision; text-rendering:geometricPrecision; image-rendering:optimizeQuality; fill-rule:evenodd; clip-rule:evenodd"
viewBox="0 0 24457930 19319697"
 xmlns:xlink="http://www.w3.org/1999/xlink">
 <defs>
  <style type="text/css">
   <![CDATA[
    .fil0 {fill:#C8EDFA}
   ]]>
  </style>
 </defs>
 <g id="Layer_x0020_1">
  <metadata id="CorelCorpID_0Corel-Layer"/>
  <g id="_1736656860352">
   <circle class="fil0" cx="23789976" cy="667960" r="667967"/>
   <circle class="fil0" cx="23789976" cy="3237070" r="667967"/>
   <circle class="fil0" cx="23789976" cy="5806180" r="667967"/>
   <circle class="fil0" cx="23789976" cy="8375290" r="667967"/>
   <circle class="fil0" cx="23789976" cy="10944400" r="667967"/>
   <circle class="fil0" cx="23789976" cy="13513510" r="667967"/>
   <circle class="fil0" cx="23789976" cy="16082620" r="667967"/>
   <circle class="fil0" cx="23789976" cy="18651730" r="667967"/>
   <circle class="fil0" cx="21220866" cy="667960" r="667967"/>
   <circle class="fil0" cx="21220866" cy="3237070" r="667967"/>
   <circle class="fil0" cx="21220866" cy="5806180" r="667967"/>
   <circle class="fil0" cx="21220866" cy="8375290" r="667967"/>
   <circle class="fil0" cx="21220866" cy="10944400" r="667967"/>
   <circle class="fil0" cx="21220866" cy="13513510" r="667967"/>
   <circle class="fil0" cx="21220866" cy="16082620" r="667967"/>
   <circle class="fil0" cx="21220866" cy="18651730" r="667967"/>
   <circle class="fil0" cx="18651756" cy="667960" r="667967"/>
   <circle class="fil0" cx="18651756" cy="3237070" r="667967"/>
   <circle class="fil0" cx="18651756" cy="5806180" r="667967"/>
   <circle class="fil0" cx="18651756" cy="8375290" r="667967"/>
   <circle class="fil0" cx="18651756" cy="10944400" r="667967"/>
   <circle class="fil0" cx="18651756" cy="13513510" r="667967"/>
   <circle class="fil0" cx="18651756" cy="16082620" r="667967"/>
   <circle class="fil0" cx="18651756" cy="18651730" r="667967"/>
   <circle class="fil0" cx="16082646" cy="667960" r="667967"/>
   <circle class="fil0" cx="16082646" cy="3237070" r="667967"/>
   <circle class="fil0" cx="16082646" cy="5806180" r="667967"/>
   <circle class="fil0" cx="16082646" cy="8375290" r="667967"/>
   <circle class="fil0" cx="16082646" cy="10944400" r="667967"/>
   <circle class="fil0" cx="16082646" cy="13513510" r="667967"/>
   <circle class="fil0" cx="16082646" cy="16082620" r="667967"/>
   <circle class="fil0" cx="16082646" cy="18651730" r="667967"/>
   <circle class="fil0" cx="13513536" cy="667960" r="667967"/>
   <circle class="fil0" cx="5806206" cy="667960" r="667967"/>
   <circle class="fil0" cx="13513536" cy="3237070" r="667967"/>
   <circle class="fil0" cx="5806206" cy="3237070" r="667967"/>
   <circle class="fil0" cx="13513536" cy="5806180" r="667967"/>
   <circle class="fil0" cx="5806206" cy="5806180" r="667967"/>
   <circle class="fil0" cx="13513536" cy="8375290" r="667967"/>
   <circle class="fil0" cx="5806206" cy="8375290" r="667967"/>
   <circle class="fil0" cx="13513536" cy="10944400" r="667967"/>
   <circle class="fil0" cx="5806206" cy="10944400" r="667967"/>
   <circle class="fil0" cx="13513536" cy="13513510" r="667967"/>
   <circle class="fil0" cx="5806206" cy="13513510" r="667967"/>
   <circle class="fil0" cx="13513536" cy="16082620" r="667967"/>
   <circle class="fil0" cx="5806206" cy="16082620" r="667967"/>
   <circle class="fil0" cx="13513536" cy="18651730" r="667967"/>
   <circle class="fil0" cx="5806206" cy="18651730" r="667967"/>
   <circle class="fil0" cx="10944426" cy="667960" r="667967"/>
   <circle class="fil0" cx="3237096" cy="667960" r="667967"/>
   <circle class="fil0" cx="10944426" cy="3237070" r="667967"/>
   <circle class="fil0" cx="3237096" cy="3237070" r="667967"/>
   <circle class="fil0" cx="10944426" cy="5806180" r="667967"/>
   <circle class="fil0" cx="3237096" cy="5806180" r="667967"/>
   <circle class="fil0" cx="10944426" cy="8375290" r="667967"/>
   <circle class="fil0" cx="3237096" cy="8375290" r="667967"/>
   <circle class="fil0" cx="10944426" cy="10944400" r="667967"/>
   <circle class="fil0" cx="3237096" cy="10944400" r="667967"/>
   <circle class="fil0" cx="10944426" cy="13513510" r="667967"/>
   <circle class="fil0" cx="3237096" cy="13513510" r="667967"/>
   <circle class="fil0" cx="10944426" cy="16082620" r="667967"/>
   <circle class="fil0" cx="3237096" cy="16082620" r="667967"/>
   <circle class="fil0" cx="10944426" cy="18651730" r="667967"/>
   <circle class="fil0" cx="3237096" cy="18651730" r="667967"/>
   <circle class="fil0" cx="8375316" cy="667960" r="667967"/>
   <circle class="fil0" cx="667986" cy="667960" r="667967"/>
   <circle class="fil0" cx="8375316" cy="3237070" r="667967"/>
   <circle class="fil0" cx="667986" cy="3237070" r="667967"/>
   <circle class="fil0" cx="8375316" cy="5806180" r="667967"/>
   <circle class="fil0" cx="667986" cy="5806180" r="667967"/>
   <circle class="fil0" cx="8375316" cy="8375290" r="667967"/>
   <circle class="fil0" cx="667986" cy="8375290" r="667967"/>
   <circle class="fil0" cx="8375316" cy="10944400" r="667967"/>
   <circle class="fil0" cx="667986" cy="10944400" r="667967"/>
   <circle class="fil0" cx="8375316" cy="13513510" r="667967"/>
   <circle class="fil0" cx="667986" cy="13513510" r="667967"/>
   <circle class="fil0" cx="8375316" cy="16082620" r="667967"/>
   <circle class="fil0" cx="667986" cy="16082620" r="667967"/>
   <circle class="fil0" cx="8375316" cy="18651730" r="667967"/>
   <circle class="fil0" cx="667986" cy="18651730" r="667967"/>
  </g>
 </g>
</svg>
