<?xml version="1.0" encoding="UTF-8"?>
<!DOCTYPE svg PUBLIC "-//W3C//DTD SVG 1.1//EN" "http://www.w3.org/Graphics/SVG/1.1/DTD/svg11.dtd">
<!-- Creator: CorelDRAW X7 -->
<svg xmlns="http://www.w3.org/2000/svg" xml:space="preserve" width="144px" height="138px" version="1.1" style="shape-rendering:geometricPrecision; text-rendering:geometricPrecision; image-rendering:optimizeQuality; fill-rule:evenodd; clip-rule:evenodd"
viewBox="0 0 28796 27676"
 xmlns:xlink="http://www.w3.org/1999/xlink">
 <defs>
  <style type="text/css">
   <![CDATA[
    .fil0 {fill:#0D5279}
    .fil1 {fill:#22A7E1}
   ]]>
  </style>
 </defs>
 <g id="Layer_x0020_1">
  <metadata id="CorelCorpID_0Corel-Layer"/>
  <g id="_1736719389408">
   <path class="fil0" d="M13629 18640c-6052,0 -9897,4811 -11456,9036 7788,0 15578,0 23367,0 -1188,-11207 -16363,-19152 -25540,-8464l73 2894c5682,-7419 16346,-7925 21551,4 -2151,-2192 -4981,-3470 -7995,-3470z"/>
   <path class="fil1" d="M73 18917c6560,-10458 22150,-10523 28723,-43l0 -896 0 -8542 0 -9436 -5836 0 -17051 0 -5836 0 0 9436 0 8543 0 938z"/>
  </g>
 </g>
</svg>
